<svg viewBox="0 0 881.94 890.78" xmlns="http://www.w3.org/2000/svg"><path d="m635.16 251.12-46.16 35.26a2.24 2.24 0 0 0 1.79 4 109.63 109.63 0 0 1 107.07 41.25 109.5 109.5 0 0 1 17.4 99.71 2.23 2.23 0 0 0 3.5 2.43l9.76-7.45c32-24.49 76.35-26.17 109.61-3.38 33.89 23.23 47.49 59.79 42.93 93.91a96.07 96.07 0 0 1 -37 63.81l-355.22 271.44c-32 24.48-76.34 26.17-109.61 3.37-33.89-23.23-47.48-59.79-42.92-93.9a96.49 96.49 0 0 1 2.55-12.57 2.24 2.24 0 0 0 -3.53-2.34l-63.23 48.34a105.9 105.9 0 0 1 -148.46-19.9l-4.51-5.91a105.91 105.91 0 0 1 19.87-148.46l19.85-15.17a2.24 2.24 0 0 0 -1.79-4 109.64 109.64 0 0 1 -86.57-194.9l25.41-19.41a2.24 2.24 0 0 0 -1.85-4 78 78 0 0 1 -63.4-138.25l287.73-219.89c22.62-17.3 61.27-19.64 85.37-4.45 29.6 18.64 41.56 49.34 37.74 77.94a78.64 78.64 0 0 1 -7.89 25.25 2.24 2.24 0 0 0 3.36 2.78l66.51-50.82c36.61-28 87.29-30 125.22-3.89 38.34 26.42 53.75 67.9 48.57 106.63a109.29 109.29 0 0 1 -42.1 72.57z" fill="#e8f6f3"/><circle cx="312.95" cy="354.78" fill="#73c6b6" r="260.25" stroke="#16a085" stroke-miterlimit="10" stroke-width="5"/><path d="m472 501.62s0 0 0 .06a215.91 215.91 0 0 1 -159 69.54c-119.54 0-216.44-96.9-216.44-216.44a215.68 215.68 0 0 1 57-146.39c37.82-33.21 90.82-49.11 147.69-41 101.71 14.4 189 102.41 202.1 203.22 6.37 49.24-5.6 95.39-31.35 131.01z" fill="#fcfcfc"/><path d="m472 501.62c25.79-35.61 37.76-81.77 31.35-131-13.09-100.81-100.39-188.82-202.1-203.22-56.87-8.07-109.87 7.83-147.69 41a215.85 215.85 0 0 1 159.43-70c119.54 0 216.44 96.9 216.44 216.44a215.67 215.67 0 0 1 -57.43 146.78z" fill="#a2d9ce"/><path d="m497.19 532.05h42.34v73.49h-42.34z" fill="#73c6b6" stroke="#16a085" stroke-miterlimit="10" stroke-width="5" transform="matrix(.71410624 -.70003734 .70003734 .71410624 -249.98 525.43)"/><rect fill="#5cbdaa" height="359.48" rx="14.86" stroke="#16a085" stroke-miterlimit="10" stroke-width="5" transform="matrix(.71410624 -.70003734 .70003734 .71410624 -316.47 674.71)" width="117.78" x="609.01" y="545.1"/><path d="m814.1 827.09-4.24 4.15-42.67 41.84a21.71 21.71 0 0 1 -30.64-.32l-207.64-211.83-7.53-7.69a21.7 21.7 0 0 1 .31-30.64l46.92-46a21.68 21.68 0 0 1 30.63.29l215.18 219.56a21.69 21.69 0 0 1 -.32 30.64z" fill="#73c6b6"/><path d="m809.86 831.24-42.67 41.84a21.71 21.71 0 0 1 -30.64-.32l-207.64-211.83a26.07 26.07 0 0 1 7.38-23.43l32.35-31.7a26 26 0 0 1 36.84.36l197.52 201.49a26.05 26.05 0 0 1 6.86 23.59z" fill="#a2d9ce"/><ellipse cx="402.33" cy="303.96" fill="#16a085" rx="14.02" ry="17.53"/><ellipse cx="425.99" cy="336.38" fill="#b9e3da" rx="20.15" ry="7.89"/><ellipse cx="223.57" cy="303.96" fill="#16a085" rx="14.02" ry="17.53"/><ellipse cx="199.91" cy="336.38" fill="#b9e3da" rx="20.15" ry="7.89"/><path d="m266.5 450.29a5.25 5.25 0 0 1 -4.39-8.13c.67-1.03 16.89-25.16 50.89-25.16s51.3 24 52 25a5.26 5.26 0 1 1 -8.57 6.09c-.59-.82-15.17-20.57-43.46-20.57s-41.91 20.2-42 20.4a5.24 5.24 0 0 1 -4.47 2.37z" fill="#16a085"/><circle cx="687.12" cy="168.13" fill="#73c6b6" r="165.61"/><path d="m839.6 163.18c18.07 79.9-32 156.11-118.64 167.54-94 12.4-186.82-55.88-199.08-148.81-11.62-88.14 55.79-155.84 143.64-155.3 81.48.5 156.81 60.27 174.08 136.57z" fill="#b9e3da"/><circle cx="687.12" cy="168.13" r="165.61" style="stroke:#16a085;stroke-width:5;fill:none;stroke-linecap:round;stroke-linejoin:round;stroke-dasharray:29.51 15.74" transform="matrix(.70710678 -.70710678 .70710678 .70710678 82.36 535.11)"/><circle cx="312.95" cy="354.78" fill="none" r="216.44" stroke="#16a085" stroke-miterlimit="10" stroke-width="5"/><path d="m685.64 229.28a7.62 7.62 0 0 1 -7.61-7.6v-3.59a7.62 7.62 0 0 1 7.61-7.6h3.58a7.61 7.61 0 0 1 7.61 7.6v3.59a7.61 7.61 0 0 1 -7.61 7.6zm.67-26.35a7.53 7.53 0 0 1 -5.46-2.31 7.39 7.39 0 0 1 -2.1-5.42 35.47 35.47 0 0 1 2.19-11.74 30.79 30.79 0 0 1 5.25-8.66 90.33 90.33 0 0 1 9.12-8.86c4.06-3.58 6.69-6.41 7.83-8.41a12.07 12.07 0 0 0 1.61-6.15 14.71 14.71 0 0 0 -4.9-10.93 16.58 16.58 0 0 0 -12.11-4.77 16.08 16.08 0 0 0 -11.53 4.32c-2.56 2.4-4.44 6.06-5.58 10.88a6.12 6.12 0 0 1 -6 4.78 5.9 5.9 0 0 1 -.72 0l-5-.59a7.07 7.07 0 0 1 -2.15-.54 6.17 6.17 0 0 1 -3.47-6.89c1.65-7.87 5.1-14.17 10.26-18.72 6.06-5.35 14.11-8.06 23.93-8.06 10.38 0 18.83 2.91 25.1 8.64a27.69 27.69 0 0 1 9.54 21.13 27 27 0 0 1 -3.39 13.28c-2.2 4-6.31 8.59-12.55 14.11a60 60 0 0 0 -7.53 7.5 15.42 15.42 0 0 0 -2.37 5 29.87 29.87 0 0 0 -.74 5.33 7.66 7.66 0 0 1 -7.59 7.11z" fill="#16a085"/></svg>