<?xml version="1.0" encoding="utf-8"?>
<!-- Generator: Adobe Illustrator 25.0.0, SVG Export Plug-In . SVG Version: 6.00 Build 0)  -->
<svg version="1.1" id="Layer_1" xmlns="http://www.w3.org/2000/svg" xmlns:xlink="http://www.w3.org/1999/xlink" x="0px" y="0px"
	 viewBox="0 0 345.9 413.9" style="enable-background:new 0 0 345.9 413.9;" xml:space="preserve">
<g>
	<path d="M345.9,218.3c0,67.9-57.7,124.7-134.9,139c-2.6,0.5-4.5,2.8-4.5,5.4v45.6c0,3.1-2.5,5.5-5.5,5.5h-35.7
		c-3.1,0-5.5-2.5-5.5-5.5v-137c0-3,2.5-5.5,5.5-5.5h35.7c3,0,5.5,2.5,5.5,5.5v48c0,3.7,3.6,6.4,7.1,5.3c19.2-5.8,36.6-15.8,51-29.5
		c21.3-20.3,33.1-46.3,33.1-73.3s-11.8-53-33.1-73.3c-24.1-22.9-56.6-35.5-91.7-35.5s-67.6,12.6-91.6,35.5
		c-21.3,20.3-33.1,46.3-33.1,73.3s11.8,53,33.1,73.3c15.3,14.5,33.9,24.9,54.5,30.5c2.4,0.7,4.1,2.8,4.1,5.3v20.5
		c0,3.5-3.2,6.1-6.6,5.4C56.9,342.3,0,285.8,0,218.3C0,139.6,77.4,75.9,172.9,75.9c27.3,0,53.2,5.2,76.2,14.5V64.3h16.5V98
		C313.9,123.3,345.9,167.7,345.9,218.3z"/>
	<path d="M167.8,158.8c0.2-3,0.3-5.7,0.5-8.7c1.5-0.2,2.9-0.4,4.4-0.4c10.5,0,21-0.4,31.5,0.2c5.6,0.3,11.2,2.2,16.7,3.9
		c13.7,4.1,23.3,13.9,31.9,24.3c5.3,6.4,8.1,14.7,8.2,23.3c0.2,16,0,32,0.1,48c0,4.2-1.7,6.1-6,5.9c-4.7-0.2-9.3,0-14-0.1
		c-5.5-0.1-7.7-2.4-7.7-8c0-15.8-0.4-31.7,0.2-47.5c0.2-6.7-2-11.9-6.2-16.4c-5.1-5.5-9.7-12-17.8-13.6c-3.8-0.8-7.7-1.3-11.6-1.3
		c-0.7,0-2,3-2,4.6c-0.1,24.3,0,48.7-0.1,73c0,10.5,1.5,9.1-9.3,9.3c-3,0-6,0-9,0c-8,0-9.5-1.5-9.5-9.7c0-16.8,0.1-33.7-0.3-50.5
		c-0.1-3.3-1.7-7.2-3.8-9.7c-6.2-7.1-12.4-14.4-22.4-16.5c-1.6-0.3-3.2-0.5-4.9-0.7c-4.7-0.8-6.3,0.8-6.3,5.9
		c0.3,24.5,0.1,49,0.1,73.5c0,1.3-0.1,2.7,0,4c0.2,2.8-0.9,3.9-3.7,3.8c-5.7-0.1-11.3,0-17-0.1c-4.7-0.1-7.1-2.5-7.1-7.1
		c-0.1-31.5,0-63-0.1-94.5c0-3,0.9-4.1,4-4.1c11.5,0.2,23-0.5,34.5,0.4c6,0.5,11.8,3.4,17.7,5.4
		C161.7,156.3,164.5,157.5,167.8,158.8z"/>
	<path d="M215.2,18.7C231.9-7,283.7-6,299.3,20.4c-1.5-0.5-3.4-0.6-4.3-1.6C277.6-0.6,243,0.4,226.7,11.6c-2.6,1.8-4.7,4.2-7.2,6.1
		C218.4,18.4,216.7,18.3,215.2,18.7z"/>
	<path d="M293.1,31.4c-2,3.2-3.4,1.5-5.2-0.3C274,17.3,247.6,14.9,231.5,26c-1.9,1.3-3.4,3.2-5.3,4.5c-1.1,0.7-2.7,0.8-5.2,1.4
		C234.2,9.4,278.6,10.1,293.1,31.4z"/>
	<path d="M230.8,40.8c11.7-17.5,42.5-17.1,56.7-0.4c-1.6,2.8-3,2.4-5.2,0.3c-12.8-12.1-34.1-12.3-47.4-0.7
		C234,40.7,232.2,40.5,230.8,40.8z"/>
	<path d="M238,48.5c8.4-13,34.2-12.5,41.7,0.9c-2.3-0.3-3.9-0.1-4.9-0.8c-10.9-7.8-21.1-8-31.7-0.6C242.1,48.6,240.4,48.3,238,48.5z
		"/>
	<path d="M272.8,57.5c-1.4-0.4-3-0.4-4.2-1.2c-6.6-4.2-13-4.2-19.7-0.3c-1.1,0.7-2.8,0.4-5,0.7C248.9,47.3,268.2,46.9,272.8,57.5z"
		/>
</g>
</svg>
